<svg xmlns="http://www.w3.org/2000/svg" width="805" height="600"><rect width="805" height="600" x="0" y="0" fill="#FFFFFF" id="backgorund"/><g transform="translate(10,10)" id="visualization"><g><rect x="0" y="0" height="16.666666666666668" width="5" fill="black"><title>5: 1</title></rect><rect x="260" y="0" height="16.666666666666668" width="5" fill="black"><title>La décision : roman: 1</title></rect><rect x="0" y="21.666666666666668" height="16.666666666666668" width="5" fill="black"><title>25: 1</title></rect><rect x="260" y="21.666666666666668" height="16.666666666666668" width="5" fill="black"><title>Dans les brumes de Capelans: 1</title></rect><rect x="0" y="43.333333333333336" height="16.666666666666664" width="5" fill="black"><title>28: 1</title></rect><rect x="260" y="43.333333333333336" height="16.666666666666664" width="5" fill="black"><title>Ton absence n'est que ténèbres : roman: 1</title></rect><rect x="0" y="65" height="16.66666666666667" width="5" fill="black"><title>33: 1</title></rect><rect x="260" y="65" height="16.66666666666667" width="5" fill="black"><title>Vivre avec nos morts : petit traité de consolation: 1</title></rect><rect x="0" y="86.66666666666667" height="16.66666666666667" width="5" fill="black"><title>61: 1</title></rect><rect x="260" y="86.66666666666667" height="16.66666666666667" width="5" fill="black"><title>Faites votre glucose révolution : la formule scientifique efficace pour perdre du poids et retrouver votre énergie: 1</title></rect><rect x="0" y="108.33333333333334" height="16.66666666666667" width="5" fill="black"><title>72: 1</title></rect><rect x="260" y="108.33333333333334" height="16.66666666666667" width="5" fill="black"><title>Le pays des autres : roman: 1</title></rect><rect x="0" y="130" height="16.666666666666657" width="5" fill="black"><title>75: 1</title></rect><rect x="260" y="130" height="16.666666666666657" width="5" fill="black"><title>La France sous nos yeux : économie, paysages, nouveaux modes de vie: 1</title></rect><rect x="0" y="151.66666666666666" height="16.666666666666657" width="5" fill="black"><title>102: 1</title></rect><rect x="260" y="151.66666666666666" height="16.666666666666657" width="5" fill="black"><title>Les grandes oubliées : pourquoi l'histoire a effacé les femmes: 1</title></rect><rect x="0" y="173.33333333333331" height="16.666666666666657" width="5" fill="black"><title>141: 1</title></rect><rect x="260" y="173.33333333333331" height="16.666666666666657" width="5" fill="black"><title>Madres paralelas: 1</title></rect><rect x="0" y="194.99999999999997" height="16.666666666666657" width="5" fill="black"><title>162: 1</title></rect><rect x="260" y="194.99999999999997" height="16.666666666666657" width="5" fill="black"><title>Naruto. 1: 1</title></rect><rect x="0" y="216.66666666666663" height="16.666666666666657" width="5" fill="black"><title>217: 1</title></rect><rect x="260" y="216.66666666666663" height="16.666666666666657" width="5" fill="black"><title>Les masques éphémères: 1</title></rect><rect x="0" y="238.3333333333333" height="16.666666666666657" width="5" fill="black"><title>221: 1</title></rect><rect x="260" y="238.3333333333333" height="16.666666666666657" width="5" fill="black"><title>Tant que le café est encore chaud : roman: 1</title></rect><rect x="0" y="259.99999999999994" height="16.666666666666686" width="5" fill="black"><title>229: 1</title></rect><rect x="260" y="259.99999999999994" height="16.666666666666686" width="5" fill="black"><title>Les  promesses: 1</title></rect><rect x="0" y="281.66666666666663" height="16.666666666666686" width="5" fill="black"><title>233: 1</title></rect><rect x="260" y="281.66666666666663" height="16.666666666666686" width="5" fill="black"><title>Des vivants: 1</title></rect><rect x="0" y="303.3333333333333" height="16.666666666666686" width="5" fill="black"><title>262: 1</title></rect><rect x="260" y="303.3333333333333" height="16.666666666666686" width="5" fill="black"><title>My hero academia. 4. Celui qui avait tout: 1</title></rect><rect x="0" y="325" height="16.666666666666686" width="5" fill="black"><title>275: 1</title></rect><rect x="260" y="325" height="16.666666666666686" width="5" fill="black"><title>Madame Hayat: 1</title></rect><rect x="0" y="346.6666666666667" height="16.666666666666686" width="5" fill="black"><title>296: 1</title></rect><rect x="260" y="346.6666666666667" height="16.666666666666686" width="5" fill="black"><title>Naruto. 13: 1</title></rect><rect x="0" y="368.33333333333337" height="16.666666666666686" width="5" fill="black"><title>329: 1</title></rect><rect x="260" y="368.33333333333337" height="16.666666666666686" width="5" fill="black"><title>Tiens bon !!: 1</title></rect><rect x="0" y="390.00000000000006" height="16.666666666666686" width="5" fill="black"><title>333: 1</title></rect><rect x="260" y="390.00000000000006" height="16.666666666666686" width="5" fill="black"><title>Les méduses n'ont pas d'oreilles : roman: 1</title></rect><rect x="0" y="411.66666666666674" height="16.666666666666686" width="5" fill="black"><title>352: 1</title></rect><rect x="260" y="411.66666666666674" height="16.666666666666686" width="5" fill="black"><title>Naruto. 12: 1</title></rect><rect x="0" y="433.3333333333334" height="16.666666666666686" width="5" fill="black"><title>366: 1</title></rect><rect x="260" y="433.3333333333334" height="16.666666666666686" width="5" fill="black"><title>Choses sérieuses: 1</title></rect><rect x="0" y="455.0000000000001" height="16.666666666666686" width="5" fill="black"><title>370: 1</title></rect><rect x="260" y="455.0000000000001" height="16.666666666666686" width="5" fill="black"><title>Demon slayer : Kimetsu no yaiba. 12: 1</title></rect><rect x="0" y="476.6666666666668" height="16.666666666666686" width="5" fill="black"><title>407: 1</title></rect><rect x="260" y="476.6666666666668" height="16.666666666666686" width="5" fill="black"><title>Coeur du passé: 1</title></rect><rect x="0" y="498.3333333333335" height="16.66666666666663" width="5" fill="black"><title>416: 1</title></rect><rect x="260" y="498.3333333333335" height="16.66666666666663" width="5" fill="black"><title>Chavirer : roman: 1</title></rect><rect x="0" y="520.0000000000001" height="16.66666666666663" width="5" fill="black"><title>446: 1</title></rect><rect x="260" y="520.0000000000001" height="16.66666666666663" width="5" fill="black"><title>Eugénie Grandet: 1</title></rect><rect x="0" y="541.6666666666667" height="16.66666666666663" width="5" fill="black"><title>503: 1</title></rect><rect x="260" y="541.6666666666667" height="16.66666666666663" width="5" fill="black"><title>The promised Neverland. 14: 1</title></rect><rect x="0" y="563.3333333333334" height="16.66666666666663" width="5" fill="black"><title>564: 1</title></rect><rect x="260" y="563.3333333333334" height="16.66666666666663" width="5" fill="black"><title>Le roi maléfique: 1</title></rect><rect x="520" y="44.99999999999994" height="16.666666666666742" width="5" fill="black"><title>DVD tous publics: 1</title></rect><rect x="520" y="66.66666666666669" height="16.66666666666663" width="5" fill="black"><title>Livre ado: 1</title></rect><rect x="780" y="9.999999999999943" height="16.666666666666668" width="5" fill="black"><title>Tuil,  Karine: 1</title></rect><rect x="780" y="31.66666666666661" height="16.666666666666668" width="5" fill="black"><title>Norek,  Olivier: 1</title></rect><rect x="780" y="53.33333333333328" height="16.666666666666664" width="5" fill="black"><title>Jón Kalman Stefánsson: 1</title></rect><rect x="780" y="74.99999999999994" height="16.66666666666667" width="5" fill="black"><title>Horvilleur,  Delphine: 1</title></rect><rect x="780" y="96.66666666666661" height="16.66666666666667" width="5" fill="black"><title>Inchauspé,  Jessie: 1</title></rect><rect x="780" y="118.33333333333329" height="16.666666666666686" width="5" fill="black"><title>Slimani,  Leïla: 1</title></rect><rect x="780" y="139.99999999999997" height="16.66666666666663" width="5" fill="black"><title>Fourquet,  Jérôme: 1</title></rect><rect x="780" y="161.6666666666666" height="16.666666666666657" width="5" fill="black"><title>Lecoq,  Titiou: 1</title></rect><rect x="780" y="183.33333333333326" height="16.666666666666686" width="5" fill="black"><title>Leon,  Donna: 1</title></rect><rect x="780" y="204.99999999999994" height="16.666666666666686" width="5" fill="black"><title>Kawaguchi,  Toshikazu: 1</title></rect><rect x="780" y="226.66666666666663" height="16.666666666666686" width="5" fill="black"><title>Meltz,  Raphaël: 1</title></rect><rect x="780" y="248.33333333333331" height="16.66666666666663" width="5" fill="black"><title>Horikoshi,  Kohei: 1</title></rect><rect x="780" y="269.99999999999994" height="16.666666666666686" width="5" fill="black"><title>Altan,  Ahmet: 1</title></rect><rect x="780" y="291.66666666666663" height="16.666666666666686" width="5" fill="black"><title>Oda,  Eiichiro: 1</title></rect><rect x="780" y="313.3333333333333" height="16.666666666666686" width="5" fill="black"><title>Rosenfeld,  Adèle: 1</title></rect><rect x="780" y="335" height="16.666666666666742" width="5" fill="black"><title>Oseman,  Alice: 1</title></rect><rect x="780" y="356.66666666666674" height="16.666666666666686" width="5" fill="black"><title>Gotouge,  Koyoharu: 1</title></rect><rect x="780" y="378.3333333333334" height="16.666666666666686" width="5" fill="black"><title>Sobral,  Patrick: 1</title></rect><rect x="780" y="400.0000000000001" height="16.66666666666663" width="5" fill="black"><title>Lafon,  Lola: 1</title></rect><rect x="780" y="421.66666666666674" height="16.66666666666663" width="5" fill="black"><title>Shirai,  Kaiu: 1</title></rect><rect x="780" y="443.33333333333337" height="16.66666666666663" width="5" fill="black"><title>Black,  Holly: 1</title></rect><rect x="520" y="88.33333333333331" height="33.33333333333334" width="5" fill="black"><title>: 2</title></rect><rect x="520" y="126.66666666666666" height="33.33333333333337" width="5" fill="black"><title>DVD nouveautés tous publics: 2</title></rect><rect x="520" y="165.00000000000003" height="33.33333333333337" width="5" fill="black"><title>Bande dessinée adulte: 2</title></rect><rect x="520" y="203.3333333333334" height="50" width="5" fill="black"><title>Bande dessinée ado: 3</title></rect><rect x="520" y="258.33333333333337" height="50" width="5" fill="black"><title>Nouveauté: 3</title></rect><rect x="780" y="465" height="50" width="5" fill="black"><title>: 3</title></rect><rect x="780" y="520" height="50" width="5" fill="black"><title>Kishimoto,  Masashi: 3</title></rect><rect x="520" y="313.33333333333337" height="66.66666666666669" width="5" fill="black"><title>Bande dessinée jeunesse: 4</title></rect><rect x="520" y="385.00000000000006" height="149.99999999999994" width="5" fill="black"><title>Livre adulte: 9</title></rect></g><g fill="none" stroke-opacity="1"><g style="mix-blend-mode: multiply;"><path d="M5,8.333333333333334C132.5,8.333333333333334,132.5,8.333333333333334,260,8.333333333333334" stroke="#cccccc" stroke-width="16.666666666666668"/><title>5 → La décision : roman: 1</title></g><g style="mix-blend-mode: multiply;"><path d="M5,30C132.5,30,132.5,30,260,30" stroke="#7f7f7f" stroke-width="16.666666666666668"/><title>25 → Dans les brumes de Capelans: 1</title></g><g style="mix-blend-mode: multiply;"><path d="M5,51.66666666666667C132.5,51.66666666666667,132.5,51.66666666666667,260,51.66666666666667" stroke="#cccccc" stroke-width="16.666666666666668"/><title>28 → Ton absence n'est que ténèbres : roman: 1</title></g><g style="mix-blend-mode: multiply;"><path d="M5,73.33333333333333C132.5,73.33333333333333,132.5,73.33333333333333,260,73.33333333333333" stroke="#cccccc" stroke-width="16.666666666666668"/><title>33 → Vivre avec nos morts : petit traité de consolation: 1</title></g><g style="mix-blend-mode: multiply;"><path d="M5,95C132.5,95,132.5,95,260,95" stroke="#cccccc" stroke-width="16.666666666666668"/><title>61 → Faites votre glucose révolution : la formule scientifique efficace pour perdre du poids et retrouver votre énergie: 1</title></g><g style="mix-blend-mode: multiply;"><path d="M5,116.66666666666667C132.5,116.66666666666667,132.5,116.66666666666667,260,116.66666666666667" stroke="#cccccc" stroke-width="16.666666666666668"/><title>72 → Le pays des autres : roman: 1</title></g><g style="mix-blend-mode: multiply;"><path d="M5,138.33333333333334C132.5,138.33333333333334,132.5,138.33333333333334,260,138.33333333333334" stroke="#cccccc" stroke-width="16.666666666666668"/><title>75 → La France sous nos yeux : économie, paysages, nouveaux modes de vie: 1</title></g><g style="mix-blend-mode: multiply;"><path d="M5,160C132.5,160,132.5,160,260,160" stroke="#1f77b4" stroke-width="16.666666666666668"/><title>102 → Les grandes oubliées : pourquoi l'histoire a effacé les femmes: 1</title></g><g style="mix-blend-mode: multiply;"><path d="M5,181.66666666666666C132.5,181.66666666666666,132.5,181.66666666666666,260,181.66666666666666" stroke="#ff7f0e" stroke-width="16.666666666666668"/><title>141 → Madres paralelas: 1</title></g><g style="mix-blend-mode: multiply;"><path d="M5,203.33333333333331C132.5,203.33333333333331,132.5,203.33333333333331,260,203.33333333333331" stroke="#2ca02c" stroke-width="16.666666666666668"/><title>162 → Naruto. 1: 1</title></g><g style="mix-blend-mode: multiply;"><path d="M5,224.99999999999997C132.5,224.99999999999997,132.5,224.99999999999997,260,224.99999999999997" stroke="#d62728" stroke-width="16.666666666666668"/><title>217 → Les masques éphémères: 1</title></g><g style="mix-blend-mode: multiply;"><path d="M5,246.66666666666663C132.5,246.66666666666663,132.5,246.66666666666663,260,246.66666666666663" stroke="#9467bd" stroke-width="16.666666666666668"/><title>221 → Tant que le café est encore chaud : roman: 1</title></g><g style="mix-blend-mode: multiply;"><path d="M5,268.33333333333326C132.5,268.33333333333326,132.5,268.33333333333326,260,268.33333333333326" stroke="#8c564b" stroke-width="16.666666666666668"/><title>229 → Les  promesses: 1</title></g><g style="mix-blend-mode: multiply;"><path d="M5,289.99999999999994C132.5,289.99999999999994,132.5,289.99999999999994,260,289.99999999999994" stroke="#e377c2" stroke-width="16.666666666666668"/><title>233 → Des vivants: 1</title></g><g style="mix-blend-mode: multiply;"><path d="M5,311.66666666666663C132.5,311.66666666666663,132.5,311.66666666666663,260,311.66666666666663" stroke="#bcbd22" stroke-width="16.666666666666668"/><title>262 → My hero academia. 4. Celui qui avait tout: 1</title></g><g style="mix-blend-mode: multiply;"><path d="M5,333.3333333333333C132.5,333.3333333333333,132.5,333.3333333333333,260,333.3333333333333" stroke="#17becf" stroke-width="16.666666666666668"/><title>275 → Madame Hayat: 1</title></g><g style="mix-blend-mode: multiply;"><path d="M5,355C132.5,355,132.5,355,260,355" stroke="#cccccc" stroke-width="16.666666666666668"/><title>296 → Naruto. 13: 1</title></g><g style="mix-blend-mode: multiply;"><path d="M5,376.6666666666667C132.5,376.6666666666667,132.5,376.6666666666667,260,376.6666666666667" stroke="#cccccc" stroke-width="16.666666666666668"/><title>329 → Tiens bon !!: 1</title></g><g style="mix-blend-mode: multiply;"><path d="M5,398.33333333333337C132.5,398.33333333333337,132.5,398.33333333333337,260,398.33333333333337" stroke="#cccccc" stroke-width="16.666666666666668"/><title>333 → Les méduses n'ont pas d'oreilles : roman: 1</title></g><g style="mix-blend-mode: multiply;"><path d="M5,420.00000000000006C132.5,420.00000000000006,132.5,420.00000000000006,260,420.00000000000006" stroke="#cccccc" stroke-width="16.666666666666668"/><title>352 → Naruto. 12: 1</title></g><g style="mix-blend-mode: multiply;"><path d="M5,441.66666666666674C132.5,441.66666666666674,132.5,441.66666666666674,260,441.66666666666674" stroke="#cccccc" stroke-width="16.666666666666668"/><title>366 → Choses sérieuses: 1</title></g><g style="mix-blend-mode: multiply;"><path d="M5,463.3333333333334C132.5,463.3333333333334,132.5,463.3333333333334,260,463.3333333333334" stroke="#cccccc" stroke-width="16.666666666666668"/><title>370 → Demon slayer : Kimetsu no yaiba. 12: 1</title></g><g style="mix-blend-mode: multiply;"><path d="M5,485.0000000000001C132.5,485.0000000000001,132.5,485.0000000000001,260,485.0000000000001" stroke="#cccccc" stroke-width="16.666666666666668"/><title>407 → Coeur du passé: 1</title></g><g style="mix-blend-mode: multiply;"><path d="M5,506.6666666666668C132.5,506.6666666666668,132.5,506.6666666666668,260,506.6666666666668" stroke="#cccccc" stroke-width="16.666666666666668"/><title>416 → Chavirer : roman: 1</title></g><g style="mix-blend-mode: multiply;"><path d="M5,528.3333333333335C132.5,528.3333333333335,132.5,528.3333333333335,260,528.3333333333335" stroke="#cccccc" stroke-width="16.666666666666668"/><title>446 → Eugénie Grandet: 1</title></g><g style="mix-blend-mode: multiply;"><path d="M5,550.0000000000001C132.5,550.0000000000001,132.5,550.0000000000001,260,550.0000000000001" stroke="#cccccc" stroke-width="16.666666666666668"/><title>503 → The promised Neverland. 14: 1</title></g><g style="mix-blend-mode: multiply;"><path d="M5,571.6666666666667C132.5,571.6666666666667,132.5,571.6666666666667,260,571.6666666666667" stroke="#cccccc" stroke-width="16.666666666666668"/><title>564 → Le roi maléfique: 1</title></g><g style="mix-blend-mode: multiply;"><path d="M265,8.333333333333334C392.5,8.333333333333334,392.5,393.33333333333337,520,393.33333333333337" stroke="#cccccc" stroke-width="16.666666666666668"/><title>La décision : roman → Livre adulte: 1</title></g><g style="mix-blend-mode: multiply;"><path d="M265,30C392.5,30,392.5,410.00000000000006,520,410.00000000000006" stroke="#cccccc" stroke-width="16.666666666666668"/><title>Dans les brumes de Capelans → Livre adulte: 1</title></g><g style="mix-blend-mode: multiply;"><path d="M265,51.66666666666667C392.5,51.66666666666667,392.5,426.66666666666674,520,426.66666666666674" stroke="#cccccc" stroke-width="16.666666666666668"/><title>Ton absence n'est que ténèbres : roman → Livre adulte: 1</title></g><g style="mix-blend-mode: multiply;"><path d="M265,73.33333333333333C392.5,73.33333333333333,392.5,443.3333333333334,520,443.3333333333334" stroke="#cccccc" stroke-width="16.666666666666668"/><title>Vivre avec nos morts : petit traité de consolation → Livre adulte: 1</title></g><g style="mix-blend-mode: multiply;"><path d="M265,95C392.5,95,392.5,96.66666666666664,520,96.66666666666664" stroke="#cccccc" stroke-width="16.666666666666668"/><title>Faites votre glucose révolution : la formule scientifique efficace pour perdre du poids et retrouver votre énergie → : 1</title></g><g style="mix-blend-mode: multiply;"><path d="M265,116.66666666666667C392.5,116.66666666666667,392.5,460.0000000000001,520,460.0000000000001" stroke="#cccccc" stroke-width="16.666666666666668"/><title>Le pays des autres : roman → Livre adulte: 1</title></g><g style="mix-blend-mode: multiply;"><path d="M265,138.33333333333334C392.5,138.33333333333334,392.5,476.6666666666668,520,476.6666666666668" stroke="#cccccc" stroke-width="16.666666666666668"/><title>La France sous nos yeux : économie, paysages, nouveaux modes de vie → Livre adulte: 1</title></g><g style="mix-blend-mode: multiply;"><path d="M265,160C392.5,160,392.5,493.3333333333335,520,493.3333333333335" stroke="#cccccc" stroke-width="16.666666666666668"/><title>Les grandes oubliées : pourquoi l'histoire a effacé les femmes → Livre adulte: 1</title></g><g style="mix-blend-mode: multiply;"><path d="M265,181.66666666666666C392.5,181.66666666666666,392.5,135,520,135" stroke="#cccccc" stroke-width="16.666666666666668"/><title>Madres paralelas → DVD nouveautés tous publics: 1</title></g><g style="mix-blend-mode: multiply;"><path d="M265,203.33333333333331C392.5,203.33333333333331,392.5,211.66666666666674,520,211.66666666666674" stroke="#cccccc" stroke-width="16.666666666666668"/><title>Naruto. 1 → Bande dessinée ado: 1</title></g><g style="mix-blend-mode: multiply;"><path d="M265,224.99999999999997C392.5,224.99999999999997,392.5,266.6666666666667,520,266.6666666666667" stroke="#cccccc" stroke-width="16.666666666666668"/><title>Les masques éphémères → Nouveauté: 1</title></g><g style="mix-blend-mode: multiply;"><path d="M265,246.66666666666663C392.5,246.66666666666663,392.5,510.00000000000017,520,510.00000000000017" stroke="#cccccc" stroke-width="16.666666666666668"/><title>Tant que le café est encore chaud : roman → Livre adulte: 1</title></g><g style="mix-blend-mode: multiply;"><path d="M265,268.33333333333326C392.5,268.33333333333326,392.5,53.33333333333328,520,53.33333333333328" stroke="#cccccc" stroke-width="16.666666666666668"/><title>Les  promesses → DVD tous publics: 1</title></g><g style="mix-blend-mode: multiply;"><path d="M265,289.99999999999994C392.5,289.99999999999994,392.5,283.33333333333337,520,283.33333333333337" stroke="#cccccc" stroke-width="16.666666666666668"/><title>Des vivants → Nouveauté: 1</title></g><g style="mix-blend-mode: multiply;"><path d="M265,311.66666666666663C392.5,311.66666666666663,392.5,321.6666666666667,520,321.6666666666667" stroke="#cccccc" stroke-width="16.666666666666668"/><title>My hero academia. 4. Celui qui avait tout → Bande dessinée jeunesse: 1</title></g><g style="mix-blend-mode: multiply;"><path d="M265,333.3333333333333C392.5,333.3333333333333,392.5,300.00000000000006,520,300.00000000000006" stroke="#cccccc" stroke-width="16.666666666666668"/><title>Madame Hayat → Nouveauté: 1</title></g><g style="mix-blend-mode: multiply;"><path d="M265,355C392.5,355,392.5,228.3333333333334,520,228.3333333333334" stroke="#cccccc" stroke-width="16.666666666666668"/><title>Naruto. 13 → Bande dessinée ado: 1</title></g><g style="mix-blend-mode: multiply;"><path d="M265,376.6666666666667C392.5,376.6666666666667,392.5,338.33333333333337,520,338.33333333333337" stroke="#cccccc" stroke-width="16.666666666666668"/><title>Tiens bon !! → Bande dessinée jeunesse: 1</title></g><g style="mix-blend-mode: multiply;"><path d="M265,398.33333333333337C392.5,398.33333333333337,392.5,113.33333333333331,520,113.33333333333331" stroke="#cccccc" stroke-width="16.666666666666668"/><title>Les méduses n'ont pas d'oreilles : roman → : 1</title></g><g style="mix-blend-mode: multiply;"><path d="M265,420.00000000000006C392.5,420.00000000000006,392.5,245.00000000000006,520,245.00000000000006" stroke="#cccccc" stroke-width="16.666666666666668"/><title>Naruto. 12 → Bande dessinée ado: 1</title></g><g style="mix-blend-mode: multiply;"><path d="M265,441.66666666666674C392.5,441.66666666666674,392.5,173.33333333333337,520,173.33333333333337" stroke="#cccccc" stroke-width="16.666666666666668"/><title>Choses sérieuses → Bande dessinée adulte: 1</title></g><g style="mix-blend-mode: multiply;"><path d="M265,463.3333333333334C392.5,463.3333333333334,392.5,355.00000000000006,520,355.00000000000006" stroke="#cccccc" stroke-width="16.666666666666668"/><title>Demon slayer : Kimetsu no yaiba. 12 → Bande dessinée jeunesse: 1</title></g><g style="mix-blend-mode: multiply;"><path d="M265,485.0000000000001C392.5,485.0000000000001,392.5,371.66666666666674,520,371.66666666666674" stroke="#cccccc" stroke-width="16.666666666666668"/><title>Coeur du passé → Bande dessinée jeunesse: 1</title></g><g style="mix-blend-mode: multiply;"><path d="M265,506.6666666666668C392.5,506.6666666666668,392.5,526.6666666666669,520,526.6666666666669" stroke="#cccccc" stroke-width="16.666666666666668"/><title>Chavirer : roman → Livre adulte: 1</title></g><g style="mix-blend-mode: multiply;"><path d="M265,528.3333333333335C392.5,528.3333333333335,392.5,151.66666666666666,520,151.66666666666666" stroke="#cccccc" stroke-width="16.666666666666668"/><title>Eugénie Grandet → DVD nouveautés tous publics: 1</title></g><g style="mix-blend-mode: multiply;"><path d="M265,550.0000000000001C392.5,550.0000000000001,392.5,190.00000000000003,520,190.00000000000003" stroke="#cccccc" stroke-width="16.666666666666668"/><title>The promised Neverland. 14 → Bande dessinée adulte: 1</title></g><g style="mix-blend-mode: multiply;"><path d="M265,571.6666666666667C392.5,571.6666666666667,392.5,75.00000000000001,520,75.00000000000001" stroke="#cccccc" stroke-width="16.666666666666668"/><title>Le roi maléfique → Livre ado: 1</title></g><g style="mix-blend-mode: multiply;"><path d="M525,393.33333333333337C652.5,393.33333333333337,652.5,18.33333333333328,780,18.33333333333328" stroke="#cccccc" stroke-width="16.666666666666668"/><title>Livre adulte → Tuil,  Karine: 1</title></g><g style="mix-blend-mode: multiply;"><path d="M525,410.00000000000006C652.5,410.00000000000006,652.5,39.99999999999994,780,39.99999999999994" stroke="#cccccc" stroke-width="16.666666666666668"/><title>Livre adulte → Norek,  Olivier: 1</title></g><g style="mix-blend-mode: multiply;"><path d="M525,426.66666666666674C652.5,426.66666666666674,652.5,61.666666666666615,780,61.666666666666615" stroke="#cccccc" stroke-width="16.666666666666668"/><title>Livre adulte → Jón Kalman Stefánsson: 1</title></g><g style="mix-blend-mode: multiply;"><path d="M525,443.3333333333334C652.5,443.3333333333334,652.5,83.33333333333327,780,83.33333333333327" stroke="#cccccc" stroke-width="16.666666666666668"/><title>Livre adulte → Horvilleur,  Delphine: 1</title></g><g style="mix-blend-mode: multiply;"><path d="M525,96.66666666666664C652.5,96.66666666666664,652.5,104.99999999999994,780,104.99999999999994" stroke="#cccccc" stroke-width="16.666666666666668"/><title> → Inchauspé,  Jessie: 1</title></g><g style="mix-blend-mode: multiply;"><path d="M525,460.0000000000001C652.5,460.0000000000001,652.5,126.66666666666661,780,126.66666666666661" stroke="#cccccc" stroke-width="16.666666666666668"/><title>Livre adulte → Slimani,  Leïla: 1</title></g><g style="mix-blend-mode: multiply;"><path d="M525,476.6666666666668C652.5,476.6666666666668,652.5,148.33333333333331,780,148.33333333333331" stroke="#cccccc" stroke-width="16.666666666666668"/><title>Livre adulte → Fourquet,  Jérôme: 1</title></g><g style="mix-blend-mode: multiply;"><path d="M525,493.3333333333335C652.5,493.3333333333335,652.5,169.99999999999994,780,169.99999999999994" stroke="#cccccc" stroke-width="16.666666666666668"/><title>Livre adulte → Lecoq,  Titiou: 1</title></g><g style="mix-blend-mode: multiply;"><path d="M525,143.33333333333331C652.5,143.33333333333331,652.5,498.33333333333337,780,498.33333333333337" stroke="#cccccc" stroke-width="33.333333333333336"/><title>DVD nouveautés tous publics → : 2</title></g><g style="mix-blend-mode: multiply;"><path d="M525,228.3333333333334C652.5,228.3333333333334,652.5,545,780,545" stroke="#cccccc" stroke-width="50"/><title>Bande dessinée ado → Kishimoto,  Masashi: 3</title></g><g style="mix-blend-mode: multiply;"><path d="M525,266.6666666666667C652.5,266.6666666666667,652.5,191.6666666666666,780,191.6666666666666" stroke="#cccccc" stroke-width="16.666666666666668"/><title>Nouveauté → Leon,  Donna: 1</title></g><g style="mix-blend-mode: multiply;"><path d="M525,510.00000000000017C652.5,510.00000000000017,652.5,213.3333333333333,780,213.3333333333333" stroke="#cccccc" stroke-width="16.666666666666668"/><title>Livre adulte → Kawaguchi,  Toshikazu: 1</title></g><g style="mix-blend-mode: multiply;"><path d="M525,53.33333333333328C652.5,53.33333333333328,652.5,473.3333333333333,780,473.3333333333333" stroke="#cccccc" stroke-width="16.666666666666668"/><title>DVD tous publics → : 1</title></g><g style="mix-blend-mode: multiply;"><path d="M525,283.33333333333337C652.5,283.33333333333337,652.5,234.99999999999997,780,234.99999999999997" stroke="#cccccc" stroke-width="16.666666666666668"/><title>Nouveauté → Meltz,  Raphaël: 1</title></g><g style="mix-blend-mode: multiply;"><path d="M525,321.6666666666667C652.5,321.6666666666667,652.5,256.66666666666663,780,256.66666666666663" stroke="#cccccc" stroke-width="16.666666666666668"/><title>Bande dessinée jeunesse → Horikoshi,  Kohei: 1</title></g><g style="mix-blend-mode: multiply;"><path d="M525,300.00000000000006C652.5,300.00000000000006,652.5,278.33333333333326,780,278.33333333333326" stroke="#cccccc" stroke-width="16.666666666666668"/><title>Nouveauté → Altan,  Ahmet: 1</title></g><g style="mix-blend-mode: multiply;"><path d="M525,338.33333333333337C652.5,338.33333333333337,652.5,299.99999999999994,780,299.99999999999994" stroke="#cccccc" stroke-width="16.666666666666668"/><title>Bande dessinée jeunesse → Oda,  Eiichiro: 1</title></g><g style="mix-blend-mode: multiply;"><path d="M525,113.33333333333331C652.5,113.33333333333331,652.5,321.66666666666663,780,321.66666666666663" stroke="#cccccc" stroke-width="16.666666666666668"/><title> → Rosenfeld,  Adèle: 1</title></g><g style="mix-blend-mode: multiply;"><path d="M525,173.33333333333337C652.5,173.33333333333337,652.5,343.3333333333333,780,343.3333333333333" stroke="#cccccc" stroke-width="16.666666666666668"/><title>Bande dessinée adulte → Oseman,  Alice: 1</title></g><g style="mix-blend-mode: multiply;"><path d="M525,355.00000000000006C652.5,355.00000000000006,652.5,365.00000000000006,780,365.00000000000006" stroke="#cccccc" stroke-width="16.666666666666668"/><title>Bande dessinée jeunesse → Gotouge,  Koyoharu: 1</title></g><g style="mix-blend-mode: multiply;"><path d="M525,371.66666666666674C652.5,371.66666666666674,652.5,386.66666666666674,780,386.66666666666674" stroke="#cccccc" stroke-width="16.666666666666668"/><title>Bande dessinée jeunesse → Sobral,  Patrick: 1</title></g><g style="mix-blend-mode: multiply;"><path d="M525,526.6666666666669C652.5,526.6666666666669,652.5,408.3333333333334,780,408.3333333333334" stroke="#cccccc" stroke-width="16.666666666666668"/><title>Livre adulte → Lafon,  Lola: 1</title></g><g style="mix-blend-mode: multiply;"><path d="M525,190.00000000000003C652.5,190.00000000000003,652.5,430.00000000000006,780,430.00000000000006" stroke="#cccccc" stroke-width="16.666666666666668"/><title>Bande dessinée adulte → Shirai,  Kaiu: 1</title></g><g style="mix-blend-mode: multiply;"><path d="M525,75.00000000000001C652.5,75.00000000000001,652.5,451.6666666666667,780,451.6666666666667" stroke="#cccccc" stroke-width="16.666666666666668"/><title>Livre ado → Black,  Holly: 1</title></g></g><g><text x="9" y="8.333333333333334" text-anchor="start"><tspan alignment-baseline="middle" x="9" style="font-family: Arial, sans-serif; font-size: 10px; fill: black; font-weight: bold;">5</tspan></text><text x="269" y="8.333333333333334" text-anchor="start"><tspan alignment-baseline="middle" x="269" style="font-family: Arial, sans-serif; font-size: 10px; fill: black; font-weight: bold;">La décision : roman</tspan></text><text x="9" y="30" text-anchor="start"><tspan alignment-baseline="middle" x="9" style="font-family: Arial, sans-serif; font-size: 10px; fill: black; font-weight: bold;">25</tspan></text><text x="269" y="30" text-anchor="start"><tspan alignment-baseline="middle" x="269" style="font-family: Arial, sans-serif; font-size: 10px; fill: black; font-weight: bold;">Dans les brumes de Capelans</tspan></text><text x="9" y="51.66666666666667" text-anchor="start"><tspan alignment-baseline="middle" x="9" style="font-family: Arial, sans-serif; font-size: 10px; fill: black; font-weight: bold;">28</tspan></text><text x="269" y="51.66666666666667" text-anchor="start"><tspan alignment-baseline="middle" x="269" style="font-family: Arial, sans-serif; font-size: 10px; fill: black; font-weight: bold;">Ton absence n'est que ténèbres : roman</tspan></text><text x="9" y="73.33333333333334" text-anchor="start"><tspan alignment-baseline="middle" x="9" style="font-family: Arial, sans-serif; font-size: 10px; fill: black; font-weight: bold;">33</tspan></text><text x="269" y="73.33333333333334" text-anchor="start"><tspan alignment-baseline="middle" x="269" style="font-family: Arial, sans-serif; font-size: 10px; fill: black; font-weight: bold;">Vivre avec nos morts : petit traité de consolation</tspan></text><text x="9" y="95" text-anchor="start"><tspan alignment-baseline="middle" x="9" style="font-family: Arial, sans-serif; font-size: 10px; fill: black; font-weight: bold;">61</tspan></text><text x="269" y="95" text-anchor="start"><tspan alignment-baseline="middle" x="269" style="font-family: Arial, sans-serif; font-size: 10px; fill: black; font-weight: bold;">Faites votre glucose révolution : la formule scientifique efficace pour perdre du poids et retrouver votre énergie</tspan></text><text x="9" y="116.66666666666669" text-anchor="start"><tspan alignment-baseline="middle" x="9" style="font-family: Arial, sans-serif; font-size: 10px; fill: black; font-weight: bold;">72</tspan></text><text x="269" y="116.66666666666669" text-anchor="start"><tspan alignment-baseline="middle" x="269" style="font-family: Arial, sans-serif; font-size: 10px; fill: black; font-weight: bold;">Le pays des autres : roman</tspan></text><text x="9" y="138.33333333333331" text-anchor="start"><tspan alignment-baseline="middle" x="9" style="font-family: Arial, sans-serif; font-size: 10px; fill: black; font-weight: bold;">75</tspan></text><text x="269" y="138.33333333333331" text-anchor="start"><tspan alignment-baseline="middle" x="269" style="font-family: Arial, sans-serif; font-size: 10px; fill: black; font-weight: bold;">La France sous nos yeux : économie, paysages, nouveaux modes de vie</tspan></text><text x="9" y="160" text-anchor="start"><tspan alignment-baseline="middle" x="9" style="font-family: Arial, sans-serif; font-size: 10px; fill: black; font-weight: bold;">102</tspan></text><text x="269" y="160" text-anchor="start"><tspan alignment-baseline="middle" x="269" style="font-family: Arial, sans-serif; font-size: 10px; fill: black; font-weight: bold;">Les grandes oubliées : pourquoi l'histoire a effacé les femmes</tspan></text><text x="9" y="181.66666666666663" text-anchor="start"><tspan alignment-baseline="middle" x="9" style="font-family: Arial, sans-serif; font-size: 10px; fill: black; font-weight: bold;">141</tspan></text><text x="269" y="181.66666666666663" text-anchor="start"><tspan alignment-baseline="middle" x="269" style="font-family: Arial, sans-serif; font-size: 10px; fill: black; font-weight: bold;">Madres paralelas</tspan></text><text x="9" y="203.33333333333331" text-anchor="start"><tspan alignment-baseline="middle" x="9" style="font-family: Arial, sans-serif; font-size: 10px; fill: black; font-weight: bold;">162</tspan></text><text x="269" y="203.33333333333331" text-anchor="start"><tspan alignment-baseline="middle" x="269" style="font-family: Arial, sans-serif; font-size: 10px; fill: black; font-weight: bold;">Naruto. 1</tspan></text><text x="9" y="224.99999999999994" text-anchor="start"><tspan alignment-baseline="middle" x="9" style="font-family: Arial, sans-serif; font-size: 10px; fill: black; font-weight: bold;">217</tspan></text><text x="269" y="224.99999999999994" text-anchor="start"><tspan alignment-baseline="middle" x="269" style="font-family: Arial, sans-serif; font-size: 10px; fill: black; font-weight: bold;">Les masques éphémères</tspan></text><text x="9" y="246.66666666666663" text-anchor="start"><tspan alignment-baseline="middle" x="9" style="font-family: Arial, sans-serif; font-size: 10px; fill: black; font-weight: bold;">221</tspan></text><text x="269" y="246.66666666666663" text-anchor="start"><tspan alignment-baseline="middle" x="269" style="font-family: Arial, sans-serif; font-size: 10px; fill: black; font-weight: bold;">Tant que le café est encore chaud : roman</tspan></text><text x="9" y="268.33333333333326" text-anchor="start"><tspan alignment-baseline="middle" x="9" style="font-family: Arial, sans-serif; font-size: 10px; fill: black; font-weight: bold;">229</tspan></text><text x="269" y="268.33333333333326" text-anchor="start"><tspan alignment-baseline="middle" x="269" style="font-family: Arial, sans-serif; font-size: 10px; fill: black; font-weight: bold;">Les  promesses</tspan></text><text x="9" y="290" text-anchor="start"><tspan alignment-baseline="middle" x="9" style="font-family: Arial, sans-serif; font-size: 10px; fill: black; font-weight: bold;">233</tspan></text><text x="269" y="290" text-anchor="start"><tspan alignment-baseline="middle" x="269" style="font-family: Arial, sans-serif; font-size: 10px; fill: black; font-weight: bold;">Des vivants</tspan></text><text x="9" y="311.66666666666663" text-anchor="start"><tspan alignment-baseline="middle" x="9" style="font-family: Arial, sans-serif; font-size: 10px; fill: black; font-weight: bold;">262</tspan></text><text x="269" y="311.66666666666663" text-anchor="start"><tspan alignment-baseline="middle" x="269" style="font-family: Arial, sans-serif; font-size: 10px; fill: black; font-weight: bold;">My hero academia. 4. Celui qui avait tout</tspan></text><text x="9" y="333.33333333333337" text-anchor="start"><tspan alignment-baseline="middle" x="9" style="font-family: Arial, sans-serif; font-size: 10px; fill: black; font-weight: bold;">275</tspan></text><text x="269" y="333.33333333333337" text-anchor="start"><tspan alignment-baseline="middle" x="269" style="font-family: Arial, sans-serif; font-size: 10px; fill: black; font-weight: bold;">Madame Hayat</tspan></text><text x="9" y="355" text-anchor="start"><tspan alignment-baseline="middle" x="9" style="font-family: Arial, sans-serif; font-size: 10px; fill: black; font-weight: bold;">296</tspan></text><text x="269" y="355" text-anchor="start"><tspan alignment-baseline="middle" x="269" style="font-family: Arial, sans-serif; font-size: 10px; fill: black; font-weight: bold;">Naruto. 13</tspan></text><text x="9" y="376.66666666666674" text-anchor="start"><tspan alignment-baseline="middle" x="9" style="font-family: Arial, sans-serif; font-size: 10px; fill: black; font-weight: bold;">329</tspan></text><text x="269" y="376.66666666666674" text-anchor="start"><tspan alignment-baseline="middle" x="269" style="font-family: Arial, sans-serif; font-size: 10px; fill: black; font-weight: bold;">Tiens bon !!</tspan></text><text x="9" y="398.33333333333337" text-anchor="start"><tspan alignment-baseline="middle" x="9" style="font-family: Arial, sans-serif; font-size: 10px; fill: black; font-weight: bold;">333</tspan></text><text x="269" y="398.33333333333337" text-anchor="start"><tspan alignment-baseline="middle" x="269" style="font-family: Arial, sans-serif; font-size: 10px; fill: black; font-weight: bold;">Les méduses n'ont pas d'oreilles : roman</tspan></text><text x="9" y="420.0000000000001" text-anchor="start"><tspan alignment-baseline="middle" x="9" style="font-family: Arial, sans-serif; font-size: 10px; fill: black; font-weight: bold;">352</tspan></text><text x="269" y="420.0000000000001" text-anchor="start"><tspan alignment-baseline="middle" x="269" style="font-family: Arial, sans-serif; font-size: 10px; fill: black; font-weight: bold;">Naruto. 12</tspan></text><text x="9" y="441.66666666666674" text-anchor="start"><tspan alignment-baseline="middle" x="9" style="font-family: Arial, sans-serif; font-size: 10px; fill: black; font-weight: bold;">366</tspan></text><text x="269" y="441.66666666666674" text-anchor="start"><tspan alignment-baseline="middle" x="269" style="font-family: Arial, sans-serif; font-size: 10px; fill: black; font-weight: bold;">Choses sérieuses</tspan></text><text x="9" y="463.3333333333335" text-anchor="start"><tspan alignment-baseline="middle" x="9" style="font-family: Arial, sans-serif; font-size: 10px; fill: black; font-weight: bold;">370</tspan></text><text x="269" y="463.3333333333335" text-anchor="start"><tspan alignment-baseline="middle" x="269" style="font-family: Arial, sans-serif; font-size: 10px; fill: black; font-weight: bold;">Demon slayer : Kimetsu no yaiba. 12</tspan></text><text x="9" y="485.0000000000001" text-anchor="start"><tspan alignment-baseline="middle" x="9" style="font-family: Arial, sans-serif; font-size: 10px; fill: black; font-weight: bold;">407</tspan></text><text x="269" y="485.0000000000001" text-anchor="start"><tspan alignment-baseline="middle" x="269" style="font-family: Arial, sans-serif; font-size: 10px; fill: black; font-weight: bold;">Coeur du passé</tspan></text><text x="9" y="506.6666666666668" text-anchor="start"><tspan alignment-baseline="middle" x="9" style="font-family: Arial, sans-serif; font-size: 10px; fill: black; font-weight: bold;">416</tspan></text><text x="269" y="506.6666666666668" text-anchor="start"><tspan alignment-baseline="middle" x="269" style="font-family: Arial, sans-serif; font-size: 10px; fill: black; font-weight: bold;">Chavirer : roman</tspan></text><text x="9" y="528.3333333333335" text-anchor="start"><tspan alignment-baseline="middle" x="9" style="font-family: Arial, sans-serif; font-size: 10px; fill: black; font-weight: bold;">446</tspan></text><text x="269" y="528.3333333333335" text-anchor="start"><tspan alignment-baseline="middle" x="269" style="font-family: Arial, sans-serif; font-size: 10px; fill: black; font-weight: bold;">Eugénie Grandet</tspan></text><text x="9" y="550" text-anchor="start"><tspan alignment-baseline="middle" x="9" style="font-family: Arial, sans-serif; font-size: 10px; fill: black; font-weight: bold;">503</tspan></text><text x="269" y="550" text-anchor="start"><tspan alignment-baseline="middle" x="269" style="font-family: Arial, sans-serif; font-size: 10px; fill: black; font-weight: bold;">The promised Neverland. 14</tspan></text><text x="9" y="571.6666666666667" text-anchor="start"><tspan alignment-baseline="middle" x="9" style="font-family: Arial, sans-serif; font-size: 10px; fill: black; font-weight: bold;">564</tspan></text><text x="269" y="571.6666666666667" text-anchor="start"><tspan alignment-baseline="middle" x="269" style="font-family: Arial, sans-serif; font-size: 10px; fill: black; font-weight: bold;">Le roi maléfique</tspan></text><text x="516" y="53.333333333333314" text-anchor="end"><tspan alignment-baseline="middle" x="516" style="font-family: Arial, sans-serif; font-size: 10px; fill: black; font-weight: bold;">DVD tous publics</tspan></text><text x="516" y="75" text-anchor="end"><tspan alignment-baseline="middle" x="516" style="font-family: Arial, sans-serif; font-size: 10px; fill: black; font-weight: bold;">Livre ado</tspan></text><text x="776" y="18.33333333333328" text-anchor="end"><tspan alignment-baseline="middle" x="776" style="font-family: Arial, sans-serif; font-size: 10px; fill: black; font-weight: bold;">Tuil,  Karine</tspan></text><text x="776" y="39.99999999999994" text-anchor="end"><tspan alignment-baseline="middle" x="776" style="font-family: Arial, sans-serif; font-size: 10px; fill: black; font-weight: bold;">Norek,  Olivier</tspan></text><text x="776" y="61.666666666666615" text-anchor="end"><tspan alignment-baseline="middle" x="776" style="font-family: Arial, sans-serif; font-size: 10px; fill: black; font-weight: bold;">Jón Kalman Stefánsson</tspan></text><text x="776" y="83.33333333333329" text-anchor="end"><tspan alignment-baseline="middle" x="776" style="font-family: Arial, sans-serif; font-size: 10px; fill: black; font-weight: bold;">Horvilleur,  Delphine</tspan></text><text x="776" y="104.99999999999994" text-anchor="end"><tspan alignment-baseline="middle" x="776" style="font-family: Arial, sans-serif; font-size: 10px; fill: black; font-weight: bold;">Inchauspé,  Jessie</tspan></text><text x="776" y="126.66666666666663" text-anchor="end"><tspan alignment-baseline="middle" x="776" style="font-family: Arial, sans-serif; font-size: 10px; fill: black; font-weight: bold;">Slimani,  Leïla</tspan></text><text x="776" y="148.3333333333333" text-anchor="end"><tspan alignment-baseline="middle" x="776" style="font-family: Arial, sans-serif; font-size: 10px; fill: black; font-weight: bold;">Fourquet,  Jérôme</tspan></text><text x="776" y="169.99999999999994" text-anchor="end"><tspan alignment-baseline="middle" x="776" style="font-family: Arial, sans-serif; font-size: 10px; fill: black; font-weight: bold;">Lecoq,  Titiou</tspan></text><text x="776" y="191.6666666666666" text-anchor="end"><tspan alignment-baseline="middle" x="776" style="font-family: Arial, sans-serif; font-size: 10px; fill: black; font-weight: bold;">Leon,  Donna</tspan></text><text x="776" y="213.3333333333333" text-anchor="end"><tspan alignment-baseline="middle" x="776" style="font-family: Arial, sans-serif; font-size: 10px; fill: black; font-weight: bold;">Kawaguchi,  Toshikazu</tspan></text><text x="776" y="234.99999999999997" text-anchor="end"><tspan alignment-baseline="middle" x="776" style="font-family: Arial, sans-serif; font-size: 10px; fill: black; font-weight: bold;">Meltz,  Raphaël</tspan></text><text x="776" y="256.66666666666663" text-anchor="end"><tspan alignment-baseline="middle" x="776" style="font-family: Arial, sans-serif; font-size: 10px; fill: black; font-weight: bold;">Horikoshi,  Kohei</tspan></text><text x="776" y="278.33333333333326" text-anchor="end"><tspan alignment-baseline="middle" x="776" style="font-family: Arial, sans-serif; font-size: 10px; fill: black; font-weight: bold;">Altan,  Ahmet</tspan></text><text x="776" y="300" text-anchor="end"><tspan alignment-baseline="middle" x="776" style="font-family: Arial, sans-serif; font-size: 10px; fill: black; font-weight: bold;">Oda,  Eiichiro</tspan></text><text x="776" y="321.66666666666663" text-anchor="end"><tspan alignment-baseline="middle" x="776" style="font-family: Arial, sans-serif; font-size: 10px; fill: black; font-weight: bold;">Rosenfeld,  Adèle</tspan></text><text x="776" y="343.33333333333337" text-anchor="end"><tspan alignment-baseline="middle" x="776" style="font-family: Arial, sans-serif; font-size: 10px; fill: black; font-weight: bold;">Oseman,  Alice</tspan></text><text x="776" y="365.0000000000001" text-anchor="end"><tspan alignment-baseline="middle" x="776" style="font-family: Arial, sans-serif; font-size: 10px; fill: black; font-weight: bold;">Gotouge,  Koyoharu</tspan></text><text x="776" y="386.66666666666674" text-anchor="end"><tspan alignment-baseline="middle" x="776" style="font-family: Arial, sans-serif; font-size: 10px; fill: black; font-weight: bold;">Sobral,  Patrick</tspan></text><text x="776" y="408.3333333333334" text-anchor="end"><tspan alignment-baseline="middle" x="776" style="font-family: Arial, sans-serif; font-size: 10px; fill: black; font-weight: bold;">Lafon,  Lola</tspan></text><text x="776" y="430.00000000000006" text-anchor="end"><tspan alignment-baseline="middle" x="776" style="font-family: Arial, sans-serif; font-size: 10px; fill: black; font-weight: bold;">Shirai,  Kaiu</tspan></text><text x="776" y="451.6666666666667" text-anchor="end"><tspan alignment-baseline="middle" x="776" style="font-family: Arial, sans-serif; font-size: 10px; fill: black; font-weight: bold;">Black,  Holly</tspan></text><text x="516" y="104.99999999999999" text-anchor="end"><tspan alignment-baseline="middle" x="516" style="font-family: Arial, sans-serif; font-size: 10px; fill: black; font-weight: bold;"/></text><text x="516" y="143.33333333333334" text-anchor="end"><tspan alignment-baseline="middle" x="516" style="font-family: Arial, sans-serif; font-size: 10px; fill: black; font-weight: bold;">DVD nouveautés tous publics</tspan></text><text x="516" y="181.6666666666667" text-anchor="end"><tspan alignment-baseline="middle" x="516" style="font-family: Arial, sans-serif; font-size: 10px; fill: black; font-weight: bold;">Bande dessinée adulte</tspan></text><text x="516" y="228.3333333333334" text-anchor="end"><tspan alignment-baseline="middle" x="516" style="font-family: Arial, sans-serif; font-size: 10px; fill: black; font-weight: bold;">Bande dessinée ado</tspan></text><text x="516" y="283.33333333333337" text-anchor="end"><tspan alignment-baseline="middle" x="516" style="font-family: Arial, sans-serif; font-size: 10px; fill: black; font-weight: bold;">Nouveauté</tspan></text><text x="776" y="490" text-anchor="end"><tspan alignment-baseline="middle" x="776" style="font-family: Arial, sans-serif; font-size: 10px; fill: black; font-weight: bold;"/></text><text x="776" y="545" text-anchor="end"><tspan alignment-baseline="middle" x="776" style="font-family: Arial, sans-serif; font-size: 10px; fill: black; font-weight: bold;">Kishimoto,  Masashi</tspan></text><text x="516" y="346.66666666666674" text-anchor="end"><tspan alignment-baseline="middle" x="516" style="font-family: Arial, sans-serif; font-size: 10px; fill: black; font-weight: bold;">Bande dessinée jeunesse</tspan></text><text x="516" y="460" text-anchor="end"><tspan alignment-baseline="middle" x="516" style="font-family: Arial, sans-serif; font-size: 10px; fill: black; font-weight: bold;">Livre adulte</tspan></text></g><g><text x="2.5" y="-4" text-anchor="middle" style="font-family: Arial, sans-serif; font-size: 12px; fill: rgb(123, 123, 123); font-weight: bold;">Rang</text><text x="262.5" y="-4" text-anchor="middle" style="font-family: Arial, sans-serif; font-size: 12px; fill: rgb(123, 123, 123); font-weight: bold;">Titre</text><text x="522.5" y="40.99999999999994" text-anchor="middle" style="font-family: Arial, sans-serif; font-size: 12px; fill: rgb(123, 123, 123); font-weight: bold;">Type de document</text><text x="782.5" y="5.999999999999943" text-anchor="middle" style="font-family: Arial, sans-serif; font-size: 12px; fill: rgb(123, 123, 123); font-weight: bold;">Auteur</text></g></g></svg>