<svg xmlns="http://www.w3.org/2000/svg" width="805" height="600"><rect width="805" height="600" x="0" y="0" fill="#FFFFFF" id="backgorund"/><g id="viz"><g transform="translate(0,0)"><g transform="translate(50,20)"><g class="bars"><rect id="undefined - Entreprises utilisant l'IA" x="597.7888418001604" y="280" height="280" width="34.81501584058745" fill="#1f77b4"/><rect id="undefined - Investissement en IA (en millions de dollars)" x="633.5969718040589" y="0" height="560" width="34.81501584058745" fill="#ff7f0e"/><rect id="undefined - Utilisation de l'IA dans l'éducation (%)" x="669.4051018079574" y="520.8" height="39.200000000000045" width="34.81501584058745" fill="#d62728"/><rect id="undefined - Taux de croissance économique (%)" x="705.213231811856" y="558.6" height="1.3999999999999773" width="34.81501584058745" fill="#2ca02c"/><rect id="undefined - Entreprises utilisant l'IA" x="153.17602471070762" y="308" height="252" width="34.81501584058745" fill="#1f77b4"/><rect id="undefined - Investissement en IA (en millions de dollars)" x="188.98415471460618" y="55.999999999999986" height="504" width="34.81501584058745" fill="#ff7f0e"/><rect id="undefined - Utilisation de l'IA dans l'éducation (%)" x="224.7922847185047" y="523.6" height="36.39999999999998" width="34.81501584058745" fill="#d62728"/><rect id="undefined - Taux de croissance économique (%)" x="260.60041472240323" y="556.2479999999999" height="3.7520000000000664" width="34.81501584058745" fill="#2ca02c"/><rect id="undefined - Entreprises utilisant l'IA" x="449.5845694370094" y="448" height="112" width="34.81501584058745" fill="#1f77b4"/><rect id="undefined - Investissement en IA (en millions de dollars)" x="485.39269944090796" y="392" height="168" width="34.81501584058745" fill="#ff7f0e"/><rect id="undefined - Utilisation de l'IA dans l'éducation (%)" x="521.2008294448065" y="532" height="28" width="34.81501584058745" fill="#d62728"/><rect id="undefined - Taux de croissance économique (%)" x="557.008959448705" y="559.328" height="0.6720000000000255" width="34.81501584058745" fill="#2ca02c"/><rect id="undefined - Entreprises utilisant l'IA" x="301.3802970738585" y="476" height="84" width="34.81501584058745" fill="#1f77b4"/><rect id="undefined - Investissement en IA (en millions de dollars)" x="337.18842707775707" y="448" height="112" width="34.81501584058745" fill="#ff7f0e"/><rect id="undefined - Utilisation de l'IA dans l'éducation (%)" x="372.9965570816556" y="534.8" height="25.200000000000045" width="34.81501584058745" fill="#d62728"/><rect id="undefined - Taux de croissance économique (%)" x="408.8046870855541" y="559.1039999999999" height="0.8960000000000719" width="34.81501584058745" fill="#2ca02c"/><rect id="undefined - Entreprises utilisant l'IA" x="4.971752347556745" y="459.20000000000005" height="100.79999999999995" width="34.81501584058745" fill="#1f77b4"/><rect id="undefined - Investissement en IA (en millions de dollars)" x="40.77988235145528" y="420" height="140" width="34.81501584058745" fill="#ff7f0e"/><rect id="undefined - Utilisation de l'IA dans l'éducation (%)" x="76.58801235535381" y="529.1999999999999" height="30.800000000000068" width="34.81501584058745" fill="#d62728"/><rect id="undefined - Taux de croissance économique (%)" x="112.39614235925235" y="558.88" height="1.1200000000000045" width="34.81501584058745" fill="#2ca02c"/></g><g id="xAxis" transform="translate(0,560)" fill="none" font-size="10" font-family="sans-serif" text-anchor="middle"><path class="domain" stroke="currentColor" d="M0,0H745"/><g class="tick" opacity="1" transform="translate(76.09145527369827,0)"><line stroke="currentColor" y2="6"/><text fill="currentColor" y="9" dy="0.71em">Allemagne</text></g><g class="tick" opacity="1" transform="translate(224.29572763684916,0)"><line stroke="currentColor" y2="6"/><text fill="currentColor" y="9" dy="0.71em">Chine</text></g><g class="tick" opacity="1" transform="translate(372.50000000000006,0)"><line stroke="currentColor" y2="6"/><text fill="currentColor" y="9" dy="0.71em">France</text></g><g class="tick" opacity="1" transform="translate(520.704272363151,0)"><line stroke="currentColor" y2="6"/><text fill="currentColor" y="9" dy="0.71em">Japon</text></g><g class="tick" opacity="1" transform="translate(668.9085447263019,0)"><line stroke="currentColor" y2="6"/><text fill="currentColor" y="9" dy="0.71em">États-Unis</text></g></g><g id="yAxis" fill="none" font-size="10" font-family="sans-serif" text-anchor="end"><path class="domain" stroke="currentColor" d="M0,560V0"/><g class="tick" opacity="1" transform="translate(0,560)"><line stroke="currentColor" x2="-6"/><text fill="currentColor" x="-9" dy="0.32em">0</text></g><g class="tick" opacity="1" transform="translate(0,504)"><line stroke="currentColor" x2="-6"/><text fill="currentColor" x="-9" dy="0.32em">100</text></g><g class="tick" opacity="1" transform="translate(0,448)"><line stroke="currentColor" x2="-6"/><text fill="currentColor" x="-9" dy="0.32em">200</text></g><g class="tick" opacity="1" transform="translate(0,392)"><line stroke="currentColor" x2="-6"/><text fill="currentColor" x="-9" dy="0.32em">300</text></g><g class="tick" opacity="1" transform="translate(0,336)"><line stroke="currentColor" x2="-6"/><text fill="currentColor" x="-9" dy="0.32em">400</text></g><g class="tick" opacity="1" transform="translate(0,280)"><line stroke="currentColor" x2="-6"/><text fill="currentColor" x="-9" dy="0.32em">500</text></g><g class="tick" opacity="1" transform="translate(0,224)"><line stroke="currentColor" x2="-6"/><text fill="currentColor" x="-9" dy="0.32em">600</text></g><g class="tick" opacity="1" transform="translate(0,168.00000000000003)"><line stroke="currentColor" x2="-6"/><text fill="currentColor" x="-9" dy="0.32em">700</text></g><g class="tick" opacity="1" transform="translate(0,111.99999999999997)"><line stroke="currentColor" x2="-6"/><text fill="currentColor" x="-9" dy="0.32em">800</text></g><g class="tick" opacity="1" transform="translate(0,55.999999999999986)"><line stroke="currentColor" x2="-6"/><text fill="currentColor" x="-9" dy="0.32em">900</text></g><g class="tick" opacity="1" transform="translate(0,0)"><line stroke="currentColor" x2="-6"/><text fill="currentColor" x="-9" dy="0.32em">1,000</text></g></g><text y="556" x="745" text-anchor="end" style="font-family: Arial, sans-serif; font-size: 12px; fill: rgb(123, 123, 123); font-weight: bold;">Sets</text><text y="0" x="4" dominant-baseline="hanging" text-anchor="start" style="font-family: Arial, sans-serif; font-size: 12px; fill: rgb(123, 123, 123); font-weight: bold;">Value</text></g><text x="4" y="4" style="font-family: Arial, sans-serif; font-size: 12px; fill: black; font-weight: bold; dominant-baseline: hanging;"/></g><g id="grid"><rect x="0" y="0" width="805" height="600" fill="none" stroke="#ccc"/></g></g></svg>